<svg version="1.1" id="Layer_1" xmlns="http://www.w3.org/2000/svg" xmlns:xlink="http://www.w3.org/1999/xlink" x="0px" y="0px"
	 width="100%" viewBox="0 0 1024 1024" enable-background="new 0 0 1024 1024" xml:space="preserve">
<path fill="#ffffff" opacity="1.000000" stroke="none" 
	d="
M713.732666,296.278992 
	C753.359314,338.164948 777.411987,387.305481 786.545959,443.876556 
	C791.467773,474.359070 791.501953,504.822784 787.581848,535.379822 
	C783.897949,564.095581 781.103455,592.864990 779.953369,621.838013 
	C779.058777,644.375732 780.043579,666.791260 781.504761,689.209473 
	C782.270569,700.959778 783.651428,712.711731 785.957581,724.308105 
	C786.269104,725.874512 786.857300,727.529785 785.602173,729.049255 
	C783.769958,729.093018 783.069031,727.543213 782.071228,726.549255 
	C734.608948,679.270508 687.209900,631.928162 639.651123,584.746826 
	C636.118469,581.242188 635.920593,578.943604 638.617004,574.747131 
	C651.590088,554.557068 659.076721,532.489868 661.921814,508.519775 
	C670.150330,439.195496 631.033264,376.309753 574.708679,349.095947 
	C511.653198,318.630005 434.795044,333.723053 388.624237,386.387329 
	C367.642487,410.319885 354.347412,438.033447 350.560120,469.641724 
	C340.769562,551.352661 389.312317,625.923401 473.558807,644.451965 
	C523.714661,655.482849 568.516296,642.680542 607.640930,609.631592 
	C612.728516,605.334106 612.702759,605.312256 617.473633,610.084045 
	C655.057617,647.675232 692.657043,685.250977 730.221985,722.861267 
	C747.061096,739.720825 763.832642,756.647827 780.631592,773.547546 
	C781.424927,774.345642 782.543945,774.951477 782.390137,776.508240 
	C780.960144,777.995728 779.026672,777.318481 777.320618,777.319214 
	C687.827148,777.356873 598.332520,777.629272 508.840515,777.264282 
	C443.964447,776.999695 385.408020,757.112000 333.750092,717.762695 
	C283.927673,679.811523 249.896576,630.783386 232.322113,570.552917 
	C222.898621,538.257080 219.445587,505.121643 221.981689,471.727173 
	C227.565109,398.206848 256.061279,334.981567 310.302826,284.350647 
	C349.518036,247.745804 396.120697,225.281815 448.582703,214.608124 
	C466.928253,210.875610 485.502533,209.039001 504.113770,209.163849 
	C554.597107,209.502487 602.357361,221.283707 646.841187,245.461441 
	C671.606201,258.921661 693.847534,275.775116 713.732666,296.278992 
z"/>
</svg>
