<svg width="88" height="81" viewBox="0 0 88 81" fill="none" xmlns="http://www.w3.org/2000/svg">
<g clip-path="url(#clip0_1487_986)">
<path d="M50 43.75V62.5H12.5V56.25H6.25V50H0V12.5H6.25V6.25H12.5V0H43.75V6.25H50V25H31.25V37.5H43.75V43.75H50Z" fill="white"/>
<path d="M12.5 50H37.5V43.75H12.5V50ZM6.25 43.75H12.5V12.5H6.25V43.75ZM12.5 12.5H37.5V6.25H12.5V12.5ZM50 43.75V62.5H12.5V56.25H6.25V50H0V12.5H6.25V6.25H12.5V0H43.75V6.25H50V25H31.25V37.5H43.75V43.75H50Z" fill="black"/>
<path d="M87.5 50.0049V75.0049H81.25V81.2549H43.75V75.0049H37.5V62.5049H43.75V50.0049H37.5V31.2549H43.75V25.0049H50V18.7549H81.25V25.0049H87.5V43.7549H81.25V50.0049H87.5Z" fill="white"/>
<path d="M43.75 68.7549H68.75V62.5049H43.75V68.7549ZM43.75 43.7549H50V31.2549H43.75V43.7549ZM50 50.0049H68.75V43.7549H50V50.0049ZM68.75 62.5049H75V50.0049H68.75V62.5049ZM50 31.2549H75V25.0049H50V31.2549ZM87.5 50.0049V75.0049H81.25V81.2549H43.75V75.0049H37.5V62.5049H43.75V50.0049H37.5V31.2549H43.75V25.0049H50V18.7549H81.25V25.0049H87.5V43.7549H81.25V50.0049H87.5Z" fill="#CC3333"/>
</g>
<defs>
<clipPath id="clip0_1487_986">
<rect width="88" height="81" fill="white"/>
</clipPath>
</defs>
</svg>
