<?xml version="1.0" encoding="utf-8"?>
<!-- Generator: Adobe Illustrator 28.1.0, SVG Export Plug-In . SVG Version: 6.00 Build 0)  -->
<svg version="1.1" id="Layer_1" xmlns="http://www.w3.org/2000/svg" xmlns:xlink="http://www.w3.org/1999/xlink" x="0px" y="0px"
	 viewBox="0 0 504 216" style="enable-background:new 0 0 504 216;" xml:space="preserve">
<style type="text/css">
	.st0{fill:#C8003E;stroke:#C8003E;stroke-width:4;stroke-miterlimit:10;}
</style>
<g>
	<path class="st0" d="M133.1,30.8v85c0,10.1-0.7,17.7-2.1,22.7c-1.4,5.7-3.8,10.5-7.2,14.4c-6.6,7.8-15.4,11.6-26.4,11.6
		c-8.3,0-16-2.2-23.2-6.5l9.7-16.9c4.8,3.2,9.3,4.8,13.5,4.8c5.9,0,10-2.2,12.2-6.7c2.4-4.5,3.6-12.3,3.6-23.5v-85H133.1z"/>
	<path class="st0" d="M164.2,57.3v47.5c0,13.7,5.4,20.6,16.2,20.6c10.8,0,16.2-6.9,16.2-20.6V57.3h19.1v48c0,6.6-0.8,12.4-2.5,17.2
		c-1.6,4.3-4.3,8.2-8.2,11.6c-6.5,5.6-14.7,8.4-24.7,8.4c-9.9,0-18.1-2.8-24.6-8.4c-4-3.5-6.8-7.3-8.4-11.6
		c-1.6-3.9-2.4-9.6-2.4-17.2v-48H164.2z"/>
	<path class="st0" d="M226.5,57.3h19.1V65c3.7-3.9,6.8-6.5,9.4-7.8c2.8-1.4,6.3-2.1,10.5-2.1c9.4,0,16.8,4.1,22.2,12.2
		c6-8.2,14.1-12.2,24.4-12.2c18.7,0,28,11.3,28,33.9v51.2h-19.2v-46c0-7.9-1-13.6-2.9-16.8c-2-3.3-5.2-5-9.8-5c-5.3,0-9.1,2-11.5,6
		c-2.4,4-3.6,10.3-3.6,19.1v42.8h-19.2V94.4c0-14.7-4.3-22.1-12.8-22.1c-5.4,0-9.3,2-11.8,6c-2.5,4-3.7,10.4-3.7,19.1v42.8h-19.1
		V57.3z"/>
	<path class="st0" d="M369.6,185.2h-19.1V57.3h19.1v9c7.5-7.5,16.1-11.3,25.7-11.3c11.4,0,20.8,4.2,28.1,12.6
		c7.5,8.3,11.2,18.9,11.2,31.6c0,12.4-3.7,22.8-11.1,31c-7.4,8.2-16.7,12.3-27.9,12.3c-9.7,0-18.4-3.9-26-11.6V185.2z M415.1,99.3
		c0-7.9-2.2-14.4-6.5-19.4c-4.4-5-9.9-7.6-16.5-7.6c-7,0-12.7,2.4-17.1,7.3c-4.4,4.9-6.5,11.3-6.5,19.2c0,7.8,2.2,14.2,6.5,19.2
		c4.3,4.9,10,7.4,17,7.4c6.6,0,12.1-2.5,16.4-7.5C412.8,113,415.1,106.7,415.1,99.3z"/>
</g>
<g>
	<path d="M166.5,181.9h-7.2v-21.5h-5.8v-6h19v6h-6V181.9z"/>
	<path d="M198.5,181.9h-8.9l-6.8-10.6v10.6h-7.2v-27.6h11.1c1.6,0,2.9,0.2,4,0.6c1.1,0.4,2,1,2.8,1.9c0.7,0.8,1.3,1.7,1.7,2.8
		c0.4,1,0.6,2.2,0.6,3.3c0,1.2-0.2,2.4-0.7,3.5c-0.4,1.1-1.1,2-1.9,2.6c-0.5,0.4-1,0.7-1.5,1c-0.5,0.2-1.2,0.5-2,0.7L198.5,181.9z
		 M184.1,166.7c1.4,0,2.4-0.2,3-0.7c0.4-0.3,0.7-0.7,1-1.2c0.3-0.5,0.4-1,0.4-1.5s-0.1-1-0.4-1.5s-0.6-0.9-1-1.2
		c-0.7-0.5-1.7-0.7-3-0.7h-1.3v6.9H184.1z"/>
	<path d="M209.7,177.1l-1.9,4.8h-7.6l10.6-27.6h7.8l10.4,27.6h-7.7l-1.8-4.8H209.7z M214.8,162.8l-3,8.8h6L214.8,162.8z"/>
	<path d="M232.2,154.3h10.6c1.8,0,3.6,0.4,5.2,1.1s3.1,1.7,4.3,3c1.2,1.3,2.2,2.7,3,4.4c0.7,1.7,1.1,3.4,1.1,5.3s-0.4,3.6-1.1,5.3
		c-0.7,1.7-1.7,3.2-3,4.4c-1.2,1.3-2.7,2.3-4.3,3c-1.6,0.7-3.4,1.1-5.2,1.1h-10.6V154.3z M241.1,175.8c1.3,0,2.5-0.2,3.4-0.6
		c0.9-0.4,1.7-1,2.5-1.8c0.6-0.7,1.1-1.5,1.5-2.5c0.3-0.9,0.5-1.9,0.5-3c0-1-0.2-2-0.5-2.9c-0.3-0.9-0.8-1.8-1.5-2.5
		c-0.7-0.8-1.5-1.4-2.5-1.8c-0.9-0.4-2.1-0.6-3.4-0.6h-1.6v15.5H241.1z"/>
	<path d="M268.2,181.9H261v-27.6h7.2V181.9z"/>
	<path d="M273.9,154.3h7.2l13.2,16.9v-16.9h7.2v27.6h-7.2L281.1,165v16.9h-7.2V154.3z"/>
	<path d="M335.3,166.6c0,2-0.2,3.7-0.4,4.9c-0.2,1.3-0.6,2.5-1.1,3.6c-1.2,2.5-2.8,4.5-5,5.8c-2.2,1.3-4.7,2-7.7,2
		c-2.2,0-4.2-0.4-6-1.1s-3.4-1.7-4.7-3s-2.3-2.8-3-4.6c-0.7-1.8-1.1-3.8-1.1-6c0-2.2,0.4-4.2,1.1-6c0.7-1.8,1.8-3.4,3.1-4.7
		c1.3-1.3,2.9-2.3,4.7-3c1.8-0.7,3.9-1.1,6.1-1.1c3,0,5.4,0.6,7.4,1.9c2,1.3,3.7,3.2,5,5.9L327,164c-1.2-2.9-3.2-4.4-5.9-4.4
		c-1,0-2,0.2-2.8,0.7c-0.9,0.4-1.6,1-2.3,1.8c-0.6,0.8-1.2,1.7-1.5,2.7s-0.5,2.2-0.5,3.5c0,1.3,0.2,2.5,0.6,3.7c0.4,1.2,1,2.2,1.8,3
		c1.2,1.3,2.8,2,4.9,2c2.1,0,3.6-0.7,4.7-2c0.3-0.4,0.5-0.8,0.6-1.2c0.1-0.4,0.3-0.9,0.4-1.6H321v-5.6H335.3z"/>
</g>
</svg>
