<?xml version="1.0" encoding="utf-8"?>
<!-- Generator: Adobe Illustrator 26.0.1, SVG Export Plug-In . SVG Version: 6.00 Build 0)  -->
<svg version="1.1" id="Layer_1" xmlns="http://www.w3.org/2000/svg" xmlns:xlink="http://www.w3.org/1999/xlink" x="0px" y="0px"
	 viewBox="0 0 309.3 57.7" style="enable-background:new 0 0 309.3 57.7;" xml:space="preserve">
<style type="text/css">
	.st0{fill:#F5F3F4;}
</style>
<g id="a">
</g>
<g id="b">
	<g id="c">
		<g id="d" transform="translate(-311.24377,-453.69396)">
			<g id="e" transform="translate(290.94378,433.99396)">
				<path id="f" class="st0" d="M130.5,41.7l-3.5,8.6h7.1L130.5,41.7z M138.6,61.4l-2.4-6H125l-2.4,6h-6L128,34.7h5.4l11.4,26.7
					C144.8,61.4,138.6,61.4,138.6,61.4z"/>
				<g id="g">
					<path id="h" class="st0" d="M169.8,48.2c0-4.7-3.2-8-8-8h-4.5v16h4.5C166.5,56.2,169.8,52.9,169.8,48.2L169.8,48.2z
						 M161.8,61.4h-10.3V34.9h10.3c8.3,0,14.1,5.7,14.1,13.2v0.1C175.9,55.6,170.1,61.4,161.8,61.4"/>
					<path id="i" class="st0" d="M202.5,48.2c0-4.7-3.2-8-8-8H190v16h4.5C199.3,56.2,202.5,52.9,202.5,48.2L202.5,48.2z M194.5,61.4
						h-10.3V34.9h10.3c8.3,0,14.1,5.7,14.1,13.2v0.1C208.6,55.6,202.8,61.4,194.5,61.4"/>
				</g>
				<polygon id="j" class="st0" points="237.3,61.4 217.1,61.4 217.1,34.9 237.2,34.9 237.2,40.1 222.9,40.1 222.9,45.5 235.4,45.5 
					235.4,50.7 222.9,50.7 222.9,56.2 237.3,56.2 				"/>
				<g id="k">
					<path id="l" class="st0" d="M262.2,44.2c0-2.6-1.8-4-4.7-4H253v8.1h4.6C260.5,48.3,262.2,46.5,262.2,44.2L262.2,44.2
						L262.2,44.2z M257.4,53.5H253v8h-5.8V34.9H258c6.3,0,10.2,3.8,10.2,9.2v0.1C268.1,50.3,263.4,53.5,257.4,53.5"/>
				</g>
				<path id="m" class="st0" d="M285.4,41.7l-3.5,8.6h7.1L285.4,41.7z M293.4,61.4l-2.4-6h-11.2l-2.4,6h-6l11.4-26.7h5.4l11.3,26.7
					H293.4L293.4,61.4z"/>
				<g id="n">
					<path id="o" class="st0" d="M322.8,44c0-2.5-1.7-3.8-4.6-3.8h-5.7v7.6h5.9C321.2,47.8,322.8,46.3,322.8,44L322.8,44L322.8,44z
						 M322.7,61.4l-5.7-8.5h-4.5v8.5h-5.8V34.9h12.1c6.3,0,10,3.3,10,8.8v0.1c0,4.3-2.3,7-5.7,8.2l6.5,9.5h-6.9
						C322.7,61.5,322.7,61.4,322.7,61.4z"/>
				</g>
				<polygon id="p" class="st0" points="82.9,19.7 46.4,77.4 20.3,77.4 56.9,19.7 				"/>
				<polygon id="q" class="st0" points="63.5,50.3 80.6,77.4 106.6,77.4 89.6,50.3 				"/>
			</g>
		</g>
	</g>
</g>
</svg>
