<svg width="160" height="24" viewBox="0 0 160 24" fill="none" xmlns="http://www.w3.org/2000/svg">
<path d="M29.4475 20.055C29.1073 19.7149 28.9373 19.5448 28.8721 19.3493C28.8122 19.1699 28.8122 18.9758 28.8721 18.7964C28.9373 18.6009 29.1073 18.4308 29.4475 18.0907L34.3995 13.1386C34.6263 12.9119 34.7396 12.7985 34.87 12.755C34.9896 12.7151 35.119 12.7151 35.2386 12.755C35.369 12.7985 35.4823 12.9119 35.7091 13.1386L40.6611 18.0907C41.0013 18.4308 41.1713 18.6009 41.2366 18.7964C41.2964 18.9758 41.2964 19.1699 41.2366 19.3493C41.1713 19.5448 41.0013 19.7149 40.6611 20.055L40.2926 20.4236C38.4785 22.2376 37.5715 23.1446 36.5288 23.4925C35.5717 23.8118 34.5369 23.8118 33.5798 23.4925C32.5371 23.1446 31.6301 22.2376 29.816 20.4236L29.4475 20.055Z" fill="white"/>
<path d="M22.2404 12.8478C21.9003 12.5076 21.7302 12.3376 21.665 12.1421C21.6051 11.9626 21.6051 11.7686 21.665 11.5891C21.7302 11.3936 21.9003 11.2235 22.2404 10.8834L27.1925 5.93137C27.4192 5.70462 27.5326 5.59124 27.663 5.54776C27.7826 5.50784 27.9119 5.50784 28.0316 5.54776C28.1619 5.59124 28.2753 5.70462 28.5021 5.93137L33.4541 10.8834C33.7942 11.2235 33.9643 11.3936 34.0295 11.5891C34.0894 11.7686 34.0894 11.9626 34.0295 12.1421C33.9643 12.3376 33.7942 12.5076 33.4541 12.8478L28.5021 17.7998C28.2753 18.0266 28.1619 18.1399 28.0316 18.1834C27.9119 18.2233 27.7826 18.2233 27.663 18.1834C27.5326 18.1399 27.4192 18.0266 27.1925 17.7998L22.2404 12.8478Z" fill="white"/>
<path d="M15.0339 5.6413C14.6938 5.30118 14.5237 5.13111 14.4585 4.9356C14.3986 4.75615 14.3986 4.56211 14.4585 4.38266C14.5237 4.18715 14.6938 4.01708 15.0339 3.67696L15.4025 3.30838C17.2165 1.49437 18.1235 0.587358 19.1662 0.239478C20.1233 -0.0798261 21.1582 -0.0798261 22.1152 0.239478C23.158 0.587358 24.065 1.49437 25.879 3.30838L26.2476 3.67696C26.5877 4.01708 26.7577 4.18715 26.823 4.38266C26.8828 4.56211 26.8828 4.75615 26.823 4.9356C26.7577 5.13111 26.5877 5.30117 26.2476 5.6413L21.2955 10.5934C21.0688 10.8201 20.9554 10.9335 20.825 10.977C20.7054 11.0169 20.576 11.0169 20.4564 10.977C20.3261 10.9335 20.2127 10.8201 19.9859 10.5934L15.0339 5.6413Z" fill="white"/>
<path d="M15.0339 20.055C14.6938 19.7149 14.5237 19.5448 14.4585 19.3493C14.3986 19.1699 14.3986 18.9758 14.4585 18.7964C14.5237 18.6009 14.6938 18.4308 15.0339 18.0907L19.9859 13.1386C20.2127 12.9119 20.3261 12.7985 20.4564 12.755C20.576 12.7151 20.7054 12.7151 20.825 12.755C20.9554 12.7985 21.0688 12.9119 21.2955 13.1386L26.2476 18.0907C26.5877 18.4308 26.7577 18.6009 26.823 18.7964C26.8828 18.9758 26.8828 19.1699 26.823 19.3493C26.7577 19.5448 26.5877 19.7149 26.2476 20.055L25.879 20.4236C24.065 22.2376 23.158 23.1446 22.1152 23.4925C21.1582 23.8118 20.1233 23.8118 19.1662 23.4925C18.1235 23.1446 17.2165 22.2376 15.4025 20.4236L15.0339 20.055Z" fill="white"/>
<path d="M7.82687 12.8478C7.48674 12.5076 7.31667 12.3376 7.25145 12.1421C7.19158 11.9626 7.19158 11.7686 7.25145 11.5891C7.31667 11.3936 7.48674 11.2235 7.82687 10.8834L12.7789 5.93137C13.0057 5.70462 13.119 5.59124 13.2494 5.54776C13.369 5.50784 13.4984 5.50784 13.618 5.54776C13.7483 5.59124 13.8617 5.70462 14.0885 5.93137L19.0405 10.8834C19.3807 11.2235 19.5507 11.3936 19.6159 11.5891C19.6758 11.7686 19.6758 11.9626 19.6159 12.1421C19.5507 12.3376 19.3807 12.5076 19.0405 12.8478L14.0885 17.7998C13.8617 18.0266 13.7483 18.1399 13.618 18.1834C13.4984 18.2233 13.369 18.2233 13.2494 18.1834C13.119 18.1399 13.0057 18.0266 12.7789 17.7998L7.82687 12.8478Z" fill="white"/>
<path d="M0.620322 20.055C0.280194 19.7149 0.11013 19.5448 0.0449022 19.3493C-0.0149674 19.1699 -0.0149674 18.9758 0.0449022 18.7964C0.11013 18.6009 0.280194 18.4308 0.620322 18.0907L5.57237 13.1386C5.79912 12.9119 5.9125 12.7985 6.04284 12.755C6.16247 12.7151 6.29183 12.7151 6.41147 12.755C6.54181 12.7985 6.65518 12.9119 6.88194 13.1386L11.834 18.0907C12.1741 18.4308 12.3442 18.6009 12.4094 18.7964C12.4693 18.9758 12.4693 19.1699 12.4094 19.3493C12.3442 19.5448 12.1741 19.7149 11.834 20.055L11.4654 20.4236C9.65139 22.2376 8.74439 23.1446 7.70166 23.4925C6.74459 23.8118 5.70972 23.8118 4.75265 23.4925C3.70992 23.1446 2.80291 22.2376 0.988895 20.4236L0.620322 20.055Z" fill="white"/>
<path d="M67.8307 3.16589H65.1459L59.4979 15.1712L53.8245 3.16589H51.1397L49.0122 20.6166H52.1023L53.5206 8.91524L58.2568 18.6411H60.7643L65.4751 8.89006L66.8682 20.6166H69.9582L67.8307 3.16589V3.16589ZM84.0878 14.5885C84.0878 10.8908 81.4284 8.48474 78.0599 8.44474C74.6659 8.48474 71.8545 10.9162 71.8545 14.69C71.8545 18.3877 74.5393 20.9205 78.0599 20.9205C80.2128 20.9205 82.3149 19.9581 83.4039 18.2357L81.4284 16.7414C80.7445 17.704 79.5035 18.2611 78.2372 18.2611C76.4642 18.2611 75.1978 17.3747 74.8686 15.7283H84.0371C84.0625 15.2978 84.0878 14.918 84.0878 14.5887V14.5885ZM74.8686 13.6768C75.2232 11.8786 76.5149 11.0935 78.0851 11.0935C79.7314 11.0935 80.9979 12.0559 81.1752 13.6768H74.8686ZM90.3612 8.78864V4.43222H87.4232V8.78864H85.2957V11.1188H87.4232V20.6166H90.3612V11.1188H92.8687V8.78864H90.3612ZM103.656 10.4349C102.871 9.1938 101.301 8.48474 99.6802 8.48474C96.3369 8.48474 93.9055 11.1188 93.9055 14.69C93.9055 18.3625 96.4382 20.9205 99.6041 20.9205C101.301 20.9205 102.871 20.0593 103.656 18.7677V20.6166H106.595V8.78864H103.656V10.4349ZM100.212 18.1852C98.2871 18.1852 96.8435 16.5894 96.8435 14.69C96.8435 12.7903 98.2871 11.2201 100.187 11.2201C101.934 11.2201 103.606 12.6639 103.606 14.69C103.606 16.6655 102.036 18.1852 100.212 18.1852ZM114.606 16.8934L111.466 8.78864H108.3L113.239 20.6166H115.923L120.913 8.78864H117.722L114.606 16.8934V16.8934ZM124.046 6.40777C125.11 6.40777 125.945 5.62249 125.945 4.60953C125.945 3.57104 125.11 2.81128 124.046 2.81128C123.007 2.81128 122.121 3.57104 122.121 4.60953C122.121 5.62266 123.007 6.40777 124.046 6.40777ZM125.515 20.6166V8.78864H122.577V20.6166H125.515ZM140.278 14.5885C140.278 10.8904 137.619 8.48474 134.251 8.48474C130.857 8.48474 128.045 10.9162 128.045 14.69C128.045 18.3877 130.73 20.9205 134.251 20.9205C136.403 20.9205 138.506 19.9581 139.595 18.2357L137.619 16.7414C136.935 17.704 135.694 18.2611 134.428 18.2611C132.655 18.2611 131.388 17.3747 131.059 15.7283H140.228C140.253 15.2978 140.278 14.918 140.278 14.5887V14.5885ZM131.059 13.6768C131.414 11.8786 132.706 11.0935 134.276 11.0935C135.922 11.0935 137.189 12.0559 137.366 13.6768H131.059ZM154.327 16.4121L151.819 8.78864H149.211L146.703 16.4121L144.196 8.78864H141.03L145.411 20.6166H147.868L150.502 12.5371L153.263 20.6166H155.745L160 8.78864H156.834L154.327 16.4121Z" fill="white"/>
</svg>
